<svg width="42" height="42" viewBox="0 0 42 42" fill="none" xmlns="http://www.w3.org/2000/svg">
<path d="M21.4769 12.4532C24.6895 12.3485 26.3457 9.08087 24.6745 6.38197C23.9562 7.07042 23.2628 7.82371 22.4746 8.46227C21.0878 9.58473 20.7685 10.7122 21.4769 12.4532Z" fill="#5CB449"/>
<path d="M21.2219 3.9375C20.758 4.73071 20.309 5.50895 19.8601 6.28719C19.3413 7.19014 19.5607 8.03324 20.0596 8.86635C20.3988 9.43507 20.738 9.50491 21.2818 9.08586C22.938 7.81373 22.9579 5.64364 21.2219 3.9375Z" fill="#5CB449"/>
<path d="M20.5237 12.0591C21.0774 9.98384 20.8729 9.70447 16.6776 6.76611C15.6649 9.89903 17.2662 12.0991 20.5237 12.0591Z" fill="#5CB449"/>
<path d="M20.6529 27.0901H18.009C17.9242 27.0901 17.8594 27.0203 17.8594 26.9405V24.2915C17.8594 24.2067 17.9292 24.1418 18.009 24.1418H20.6529C20.7377 24.1418 20.8026 24.2116 20.8026 24.2915V26.9405C20.8076 27.0203 20.7377 27.0901 20.6529 27.0901Z" fill="#010101"/>
<path d="M24.399 27.0901H21.7551C21.6703 27.0901 21.6055 27.0203 21.6055 26.9405V24.2915C21.6055 24.2067 21.6753 24.1418 21.7551 24.1418H24.399C24.4838 24.1418 24.5487 24.2116 24.5487 24.2915V26.9405C24.5487 27.0203 24.4838 27.0901 24.399 27.0901Z" fill="#010101"/>
<path d="M20.6529 30.7818H18.009C17.9242 30.7818 17.8594 30.7119 17.8594 30.6321V27.9831C17.8594 27.8983 17.9292 27.8335 18.009 27.8335H20.6529C20.7377 27.8335 20.8026 27.9033 20.8026 27.9831V30.6321C20.8076 30.7119 20.7377 30.7818 20.6529 30.7818Z" fill="#010101"/>
<path d="M24.399 30.7818H21.7551C21.6703 30.7818 21.6055 30.7119 21.6055 30.6321V27.9831C21.6055 27.8983 21.6753 27.8335 21.7551 27.8335H24.399C24.4838 27.8335 24.5487 27.9033 24.5487 27.9831V30.6321C24.5487 30.7119 24.4838 30.7818 24.399 30.7818Z" fill="#010101"/>
<path d="M37.8833 26.6461C37.6638 26.2221 37.3396 25.813 36.9704 25.5037C35.2145 24.0171 33.4236 22.5704 31.6477 21.1087C28.5898 18.5894 25.5268 16.0751 22.4689 13.5657C22.4639 13.5607 22.4539 13.5558 22.4489 13.5508V13.5458C22.0598 13.2315 21.6308 13.0719 21.2018 13.0619C21.1868 13.0619 21.1669 13.0619 21.1519 13.0619C21.1369 13.0619 21.117 13.0619 21.102 13.0619C20.673 13.0719 20.244 13.2315 19.8549 13.5458V13.5508C19.8499 13.5558 19.8399 13.5607 19.8349 13.5657C16.772 16.0751 13.7091 18.5894 10.6511 21.1037C8.8752 22.5654 7.08433 24.0121 5.32838 25.4987C4.95923 25.808 4.63497 26.2171 4.41548 26.6412C4.00143 27.4394 4.47534 28.1028 5.46805 28.0679C6.15148 28.0829 6.74012 27.6289 7.33375 27.2248C8.76047 26.257 10.1672 25.2593 11.579 24.2715C11.8883 24.057 12.0429 24.1368 12.0778 24.5309C12.2025 25.9377 12.3223 27.3496 12.442 28.7614C12.6465 31.1709 12.8361 33.5805 13.0556 35.99C13.0905 36.3592 13.2252 36.7333 13.3848 37.0676C13.5644 37.4517 13.8637 37.741 14.3526 37.6961C14.8115 37.6562 15.0909 37.3469 15.1857 36.9628C15.3403 36.3492 15.45 35.7106 15.475 35.0771C15.6546 30.6521 15.8092 26.2271 15.9639 21.8071C15.9788 21.423 16.1235 21.1586 16.4328 20.944C17.8794 19.9513 19.3311 18.9535 20.7628 17.9309C20.8376 17.876 20.9075 17.8361 20.9773 17.8111C20.9823 17.8111 20.9873 17.8061 20.9923 17.8061C21.0172 17.7962 21.0422 17.7912 21.0671 17.7862C21.0771 17.7862 21.092 17.7812 21.102 17.7812C21.122 17.7812 21.1369 17.7762 21.1569 17.7762C21.1768 17.7762 21.1918 17.7762 21.2118 17.7812C21.2217 17.7812 21.2367 17.7862 21.2467 17.7862C21.2716 17.7912 21.2966 17.7962 21.3215 17.8061C21.3265 17.8061 21.3315 17.8111 21.3365 17.8111C21.4013 17.8361 21.4712 17.876 21.551 17.9309C22.9827 18.9486 24.4293 19.9463 25.881 20.944C26.1953 21.1586 26.3399 21.423 26.3499 21.8071C26.5046 26.2321 26.6592 30.6571 26.8388 35.0771C26.8637 35.7106 26.9735 36.3492 27.1281 36.9628C27.2229 37.3469 27.5023 37.6562 27.9612 37.6961C28.4501 37.741 28.7444 37.4517 28.929 37.0676C29.0886 36.7283 29.2233 36.3592 29.2582 35.99C29.4827 33.5805 29.6723 31.1709 29.8718 28.7614C29.9915 27.3496 30.1113 25.9427 30.236 24.5309C30.2709 24.1368 30.4255 24.057 30.7348 24.2715C32.1516 25.2593 33.5533 26.257 34.98 27.2248C35.5737 27.6239 36.1573 28.0829 36.8457 28.0679C37.8235 28.1028 38.2974 27.4443 37.8833 26.6461Z" fill="#5CB248"/>
<path d="M30.9493 18.5644C32.7601 18.4996 34.0272 17.2823 34.0272 15.4415C34.0272 13.6156 32.6553 12.3485 30.8296 12.3435C29.1385 12.3335 27.7566 13.7902 27.7716 15.4864C27.8065 17.2723 29.2432 18.6243 30.9493 18.5644Z" fill="#5CB248"/>
<path d="M11.3495 18.5644C13.0556 18.6243 14.4923 17.2723 14.5222 15.4814C14.5421 13.7802 13.1553 12.3285 11.4642 12.3385C9.63844 12.3485 8.2666 13.6106 8.2666 15.4365C8.27658 17.2823 9.54366 18.4996 11.3495 18.5644Z" fill="#5CB248"/>
</svg>
